<svg id="Layer_1" data-name="Layer 1" xmlns="http://www.w3.org/2000/svg" viewBox="0 0 222.6 59.01"><defs><style>.cls-1{fill:#76acdc;}.cls-2{fill:#fcd20f;}</style></defs><path class="cls-1" d="M4.66,2h2V4.93H7.84V6.64H6.66v6.25h-2V6.64h-1V4.93h1Z" transform="translate(-3.35 -1.85)"/><path class="cls-1" d="M8.94,1.85h2V5.74a3.55,3.55,0,0,1,2.36-1A2.64,2.64,0,0,1,16,7.63v5.26H14V9.13c0-1.62-.19-2.58-1.36-2.58a1.56,1.56,0,0,0-1.35.78,3.78,3.78,0,0,0-.38,2.17v3.39h-2Z" transform="translate(-3.35 -1.85)"/><path class="cls-1" d="M25.39,11.35a4.05,4.05,0,0,1-3.66,1.75,4,4,0,0,1-4.17-4.2A4.07,4.07,0,0,1,21.7,4.72,4.09,4.09,0,0,1,25.93,9c0,.18,0,.27,0,.45H19.5a2.12,2.12,0,0,0,2.23,1.84,2.56,2.56,0,0,0,2-.78ZM23.92,7.91a2.31,2.31,0,0,0-4.33,0Z" transform="translate(-3.35 -1.85)"/><path class="cls-2" d="M10,23a11.4,11.4,0,0,1,8.35-3.6c6.85,0,12.55,5.7,12.55,14s-5.95,14-12.7,14a11.11,11.11,0,0,1-8.2-3.5v12.5H3.35V20.14H10Zm-.3,10.3c0,4.8,3.2,7.95,7.3,7.95s7.2-3.35,7.2-7.9c0-4.35-2.8-7.85-7.2-7.85S9.7,28.69,9.7,33.34Z" transform="translate(-3.35 -1.85)"/><path class="cls-2" d="M43.25,13.59A4.25,4.25,0,0,1,39,17.84a4.42,4.42,0,0,1-4.25-4.6A4.14,4.14,0,0,1,39,9.19,4.31,4.31,0,0,1,43.25,13.59ZM35.7,20.14h6.65V46.69H35.7Z" transform="translate(-3.35 -1.85)"/><path class="cls-2" d="M55,22.84c2.55-2.15,4.9-3.4,7.85-3.4a8.74,8.74,0,0,1,9.1,9.1V46.69H65.3V34.14c0-5.25-.45-8.6-4.5-8.6a5.21,5.21,0,0,0-4.5,2.55C55,30.24,55,32.64,55,35.39v11.3H48.35V20.14H55Z" transform="translate(-3.35 -1.85)"/><path class="cls-2" d="M78.4,9.89h6.65v21.2L94.9,20.14h8.3L91.8,32.89l12.8,13.8H96.35L85.05,34.44V46.69H78.4Z" transform="translate(-3.35 -1.85)"/><path class="cls-2" d="M132.25,41.54c-2.85,4.05-6.6,5.85-12.2,5.85-8.45,0-13.9-6.2-13.9-14,0-7.25,5.25-13.95,13.8-13.95,8.4,0,14.1,6,14.1,14.4,0,.6-.05.9-.05,1.5H112.6a7.11,7.11,0,0,0,7.45,6.15,8.59,8.59,0,0,0,6.6-2.6Zm-4.9-11.45c-.9-3.1-3.75-5-7.3-5a7.25,7.25,0,0,0-7.15,5Z" transform="translate(-3.35 -1.85)"/><path class="cls-2" d="M143.55,23.49c1.25-2.75,3.4-4,5.6-4a6.26,6.26,0,0,1,2.9.7L150,25.84a4.69,4.69,0,0,0-1.95-.55c-1.9,0-3.4,2.2-3.55,6.1-.05,1.45-.05,3.1-.05,4.55V46.69H137.8V20.14h5.75Z" transform="translate(-3.35 -1.85)"/><path class="cls-2" d="M156.15,10.34h6.65v9.8h3.95v5.7H162.8V46.69h-6.65V25.84h-3.4v-5.7h3.4Z" transform="translate(-3.35 -1.85)"/><path class="cls-2" d="M197,33.39a13.93,13.93,0,1,1-14.1-13.95A13.83,13.83,0,0,1,197,33.39Zm-21.15,0c0,4.5,2.85,7.7,7.15,7.7,4.1,0,7.3-3,7.3-7.65,0-4.5-2.95-7.7-7.3-7.7C178.8,25.74,175.8,29,175.8,33.39Z" transform="translate(-3.35 -1.85)"/><path class="cls-2" d="M209,22.84c2.55-2.15,4.9-3.4,7.85-3.4a8.74,8.74,0,0,1,9.1,9.1V46.69H219.3V34.14c0-5.25-.45-8.6-4.5-8.6a5.21,5.21,0,0,0-4.5,2.55c-1.35,2.15-1.3,4.55-1.3,7.3v11.3h-6.65V20.14H209Z" transform="translate(-3.35 -1.85)"/><path class="cls-1" d="M180.5,53.69a1.8,1.8,0,0,1,2.55-1l-.61,1.71a1.51,1.51,0,0,0-.59-.16c-.57,0-1,.66-1.06,1.83,0,.43,0,.93,0,1.36v3.23h-2v-8h1.72Z" transform="translate(-3.35 -1.85)"/><path class="cls-1" d="M191.39,59.1a4.27,4.27,0,1,1-3.69-6.63,4.09,4.09,0,0,1,4.23,4.32c0,.18,0,.27,0,.45H185.5a2.12,2.12,0,0,0,2.23,1.85,2.56,2.56,0,0,0,2-.78Zm-1.47-3.43a2.31,2.31,0,0,0-4.33,0Z" transform="translate(-3.35 -1.85)"/><path class="cls-1" d="M192.67,52.68h2l2,4.7,2-4.7h2l-3.39,8h-1.29Z" transform="translate(-3.35 -1.85)"/><path class="cls-1" d="M204,50.72A1.27,1.27,0,0,1,202.72,52a1.33,1.33,0,0,1-1.28-1.38,1.24,1.24,0,0,1,1.28-1.21A1.29,1.29,0,0,1,204,50.72Zm-2.26,2h2v8h-2Z" transform="translate(-3.35 -1.85)"/><path class="cls-1" d="M204.67,52.68h2l2,4.7,2-4.7h2l-3.39,8h-1.29Z" transform="translate(-3.35 -1.85)"/><path class="cls-1" d="M219.82,59.81a3.33,3.33,0,0,1-2.46,1,4,4,0,0,1-3.8-4.19,3.89,3.89,0,0,1,3.75-4.2,3.43,3.43,0,0,1,2.51,1.08v-.87h2v8h-2Zm-4.25-3.15a2.18,2.18,0,1,0,2.15-2.36A2.18,2.18,0,0,0,215.57,56.66Z" transform="translate(-3.35 -1.85)"/><path class="cls-1" d="M223.63,49.61h2v11h-2Z" transform="translate(-3.35 -1.85)"/></svg>